<mxfile host="draw.jiweb.in" modified="2023-10-05T05:52:13.905Z" agent="Mozilla/5.0 (X11; Ubuntu; Linux x86_64; rv:109.0) Gecko/20100101 Firefox/118.0" etag="5igdayVdcqZoOXnG4B5y" version="21.7.5" type="device">
  <diagram id="Gk2pYZm7RmSrTr1CUxgg" name="Page-1">
    <mxGraphModel dx="2284" dy="773" grid="1" gridSize="10" guides="1" tooltips="1" connect="1" arrows="1" fold="1" page="1" pageScale="1" pageWidth="850" pageHeight="1100" math="0" shadow="0">
      <root>
        <mxCell id="0" />
        <mxCell id="1" parent="0" />
        <mxCell id="5-lBoet5AGBmrvLkEw8s-4" value="" style="shape=cube;whiteSpace=wrap;html=1;boundedLbl=1;backgroundOutline=1;darkOpacity=0.05;darkOpacity2=0.1;fillColor=#647687;strokeColor=#314354;fontColor=#ffffff;" parent="1" vertex="1">
          <mxGeometry x="-30" y="130" width="1110" height="790" as="geometry" />
        </mxCell>
        <mxCell id="5-lBoet5AGBmrvLkEw8s-5" value="AWS" style="text;html=1;align=center;verticalAlign=middle;resizable=0;points=[];autosize=1;strokeColor=#d79b00;fillColor=#ffcd28;gradientColor=#ffa500;" parent="1" vertex="1">
          <mxGeometry x="470" y="90" width="40" height="20" as="geometry" />
        </mxCell>
        <mxCell id="5-lBoet5AGBmrvLkEw8s-7" value="" style="shape=cube;whiteSpace=wrap;html=1;boundedLbl=1;backgroundOutline=1;darkOpacity=0.05;darkOpacity2=0.1;fontSize=13;fillColor=#d5e8d4;strokeColor=#82b366;" parent="1" vertex="1">
          <mxGeometry x="90" y="330" width="270" height="140" as="geometry" />
        </mxCell>
        <mxCell id="5-lBoet5AGBmrvLkEw8s-8" value="" style="rounded=0;whiteSpace=wrap;html=1;fontSize=13;fillColor=#f8cecc;strokeColor=#b85450;" parent="1" vertex="1">
          <mxGeometry x="160" y="370" width="190" height="80" as="geometry" />
        </mxCell>
        <mxCell id="5-lBoet5AGBmrvLkEw8s-9" value="&lt;div style=&quot;font-size: 14px&quot;&gt;&lt;font style=&quot;font-size: 14px&quot;&gt;Server&lt;/font&gt;&lt;/div&gt;&lt;div style=&quot;font-size: 14px&quot;&gt;&lt;font style=&quot;font-size: 14px&quot;&gt;(Frontend)&lt;br&gt;&lt;/font&gt;&lt;/div&gt;" style="text;html=1;align=center;verticalAlign=middle;resizable=0;points=[];autosize=1;strokeColor=none;fillColor=none;rotation=270;" parent="1" vertex="1">
          <mxGeometry x="90" y="385" width="80" height="30" as="geometry" />
        </mxCell>
        <mxCell id="5-lBoet5AGBmrvLkEw8s-10" value="Docker Host" style="text;html=1;align=center;verticalAlign=middle;resizable=0;points=[];autosize=1;strokeColor=none;fillColor=none;fontSize=13;rotation=270;" parent="1" vertex="1">
          <mxGeometry x="130" y="400" width="90" height="20" as="geometry" />
        </mxCell>
        <mxCell id="5-lBoet5AGBmrvLkEw8s-11" value="&lt;div&gt;Container&lt;/div&gt;&lt;div&gt;(Nginx)&lt;br&gt;&lt;/div&gt;" style="rounded=0;whiteSpace=wrap;html=1;fontSize=13;fillColor=#fff2cc;strokeColor=#d6b656;" parent="1" vertex="1">
          <mxGeometry x="192.5" y="377.5" width="65" height="65" as="geometry" />
        </mxCell>
        <mxCell id="5-lBoet5AGBmrvLkEw8s-12" value="&lt;div&gt;Container&lt;/div&gt;&lt;div&gt;(Frontend Source Code)&lt;br&gt;&lt;/div&gt;" style="rounded=0;whiteSpace=wrap;html=1;fontSize=13;direction=south;fillColor=#fff2cc;strokeColor=#d6b656;" parent="1" vertex="1">
          <mxGeometry x="270" y="377.5" width="70" height="65" as="geometry" />
        </mxCell>
        <mxCell id="5-lBoet5AGBmrvLkEw8s-15" value="" style="endArrow=classic;html=1;rounded=0;entryX=0.623;entryY=0.986;entryDx=0;entryDy=0;entryPerimeter=0;exitX=1.015;exitY=0.608;exitDx=0;exitDy=0;exitPerimeter=0;" parent="1" source="5-lBoet5AGBmrvLkEw8s-11" target="5-lBoet5AGBmrvLkEw8s-12" edge="1">
          <mxGeometry width="50" height="50" relative="1" as="geometry">
            <mxPoint x="410" y="318" as="sourcePoint" />
            <mxPoint x="420" y="390" as="targetPoint" />
          </mxGeometry>
        </mxCell>
        <mxCell id="5-lBoet5AGBmrvLkEw8s-16" value="&lt;div&gt;ALB&lt;/div&gt;&lt;div&gt;(Load balancer)&lt;br&gt;&lt;/div&gt;" style="rounded=0;whiteSpace=wrap;html=1;fillColor=#f8cecc;gradientColor=#ea6b66;strokeColor=#b85450;" parent="1" vertex="1">
          <mxGeometry x="380" y="140" width="120" height="60" as="geometry" />
        </mxCell>
        <mxCell id="5-lBoet5AGBmrvLkEw8s-19" value="&lt;div&gt;Auto&lt;/div&gt;&lt;div&gt;Scaling&lt;br&gt;&lt;/div&gt;" style="rounded=0;whiteSpace=wrap;html=1;fillColor=#e6d0de;gradientColor=#d5739d;strokeColor=#996185;" parent="1" vertex="1">
          <mxGeometry x="410" y="220" width="60" height="60" as="geometry" />
        </mxCell>
        <mxCell id="5-lBoet5AGBmrvLkEw8s-21" value="" style="endArrow=classic;html=1;rounded=0;entryX=0.5;entryY=0;entryDx=0;entryDy=0;exitX=0.5;exitY=1;exitDx=0;exitDy=0;" parent="1" source="5-lBoet5AGBmrvLkEw8s-16" target="5-lBoet5AGBmrvLkEw8s-19" edge="1">
          <mxGeometry width="50" height="50" relative="1" as="geometry">
            <mxPoint x="340" y="170" as="sourcePoint" />
            <mxPoint x="350" y="190" as="targetPoint" />
          </mxGeometry>
        </mxCell>
        <mxCell id="5-lBoet5AGBmrvLkEw8s-24" value="" style="endArrow=classic;html=1;rounded=0;exitX=0;exitY=0.5;exitDx=0;exitDy=0;" parent="1" source="5-lBoet5AGBmrvLkEw8s-19" edge="1">
          <mxGeometry width="50" height="50" relative="1" as="geometry">
            <mxPoint x="290" y="280" as="sourcePoint" />
            <mxPoint x="240" y="320" as="targetPoint" />
            <Array as="points">
              <mxPoint x="240" y="250" />
            </Array>
          </mxGeometry>
        </mxCell>
        <mxCell id="5-lBoet5AGBmrvLkEw8s-30" value="" style="endArrow=none;dashed=1;html=1;dashPattern=1 3;strokeWidth=2;rounded=0;" parent="1" edge="1">
          <mxGeometry width="50" height="50" relative="1" as="geometry">
            <mxPoint x="370" y="320" as="sourcePoint" />
            <mxPoint x="80" y="320" as="targetPoint" />
          </mxGeometry>
        </mxCell>
        <mxCell id="5-lBoet5AGBmrvLkEw8s-31" value="" style="endArrow=none;dashed=1;html=1;dashPattern=1 3;strokeWidth=2;rounded=0;" parent="1" edge="1">
          <mxGeometry width="50" height="50" relative="1" as="geometry">
            <mxPoint x="370" y="325" as="sourcePoint" />
            <mxPoint x="370" y="500" as="targetPoint" />
          </mxGeometry>
        </mxCell>
        <mxCell id="5-lBoet5AGBmrvLkEw8s-32" value="" style="endArrow=none;dashed=1;html=1;dashPattern=1 3;strokeWidth=2;rounded=0;" parent="1" edge="1">
          <mxGeometry width="50" height="50" relative="1" as="geometry">
            <mxPoint x="370" y="500" as="sourcePoint" />
            <mxPoint x="80" y="500" as="targetPoint" />
          </mxGeometry>
        </mxCell>
        <mxCell id="5-lBoet5AGBmrvLkEw8s-33" value="" style="endArrow=none;dashed=1;html=1;dashPattern=1 3;strokeWidth=2;rounded=0;" parent="1" edge="1">
          <mxGeometry width="50" height="50" relative="1" as="geometry">
            <mxPoint x="80" y="320" as="sourcePoint" />
            <mxPoint x="80" y="500" as="targetPoint" />
          </mxGeometry>
        </mxCell>
        <mxCell id="5-lBoet5AGBmrvLkEw8s-34" value="" style="endArrow=none;dashed=1;html=1;rounded=0;" parent="1" edge="1">
          <mxGeometry width="50" height="50" relative="1" as="geometry">
            <mxPoint x="230" y="570" as="sourcePoint" />
            <mxPoint x="230" y="500" as="targetPoint" />
          </mxGeometry>
        </mxCell>
        <mxCell id="5-lBoet5AGBmrvLkEw8s-35" value="" style="endArrow=none;dashed=1;html=1;dashPattern=1 3;strokeWidth=2;rounded=0;" parent="1" edge="1">
          <mxGeometry width="50" height="50" relative="1" as="geometry">
            <mxPoint x="380" y="570" as="sourcePoint" />
            <mxPoint x="90" y="570" as="targetPoint" />
          </mxGeometry>
        </mxCell>
        <mxCell id="5-lBoet5AGBmrvLkEw8s-36" value="" style="endArrow=none;dashed=1;html=1;dashPattern=1 3;strokeWidth=2;rounded=0;" parent="1" edge="1">
          <mxGeometry width="50" height="50" relative="1" as="geometry">
            <mxPoint x="380" y="570" as="sourcePoint" />
            <mxPoint x="380" y="745" as="targetPoint" />
          </mxGeometry>
        </mxCell>
        <mxCell id="5-lBoet5AGBmrvLkEw8s-37" value="" style="endArrow=none;dashed=1;html=1;dashPattern=1 3;strokeWidth=2;rounded=0;" parent="1" edge="1">
          <mxGeometry width="50" height="50" relative="1" as="geometry">
            <mxPoint x="90" y="570" as="sourcePoint" />
            <mxPoint x="90" y="745" as="targetPoint" />
          </mxGeometry>
        </mxCell>
        <mxCell id="5-lBoet5AGBmrvLkEw8s-38" value="" style="endArrow=none;dashed=1;html=1;dashPattern=1 3;strokeWidth=2;rounded=0;" parent="1" edge="1">
          <mxGeometry width="50" height="50" relative="1" as="geometry">
            <mxPoint x="380" y="740" as="sourcePoint" />
            <mxPoint x="90" y="740" as="targetPoint" />
          </mxGeometry>
        </mxCell>
        <mxCell id="5-lBoet5AGBmrvLkEw8s-40" value="" style="endArrow=classic;html=1;rounded=0;exitX=1;exitY=0.5;exitDx=0;exitDy=0;" parent="1" source="5-lBoet5AGBmrvLkEw8s-19" edge="1">
          <mxGeometry width="50" height="50" relative="1" as="geometry">
            <mxPoint x="660" y="280" as="sourcePoint" />
            <mxPoint x="650" y="320" as="targetPoint" />
            <Array as="points">
              <mxPoint x="650" y="250" />
            </Array>
          </mxGeometry>
        </mxCell>
        <mxCell id="5-lBoet5AGBmrvLkEw8s-41" value="" style="endArrow=none;dashed=1;html=1;dashPattern=1 3;strokeWidth=2;rounded=0;" parent="1" edge="1">
          <mxGeometry width="50" height="50" relative="1" as="geometry">
            <mxPoint x="760" y="320" as="sourcePoint" />
            <mxPoint x="470" y="320" as="targetPoint" />
          </mxGeometry>
        </mxCell>
        <mxCell id="5-lBoet5AGBmrvLkEw8s-42" value="" style="endArrow=none;dashed=1;html=1;dashPattern=1 3;strokeWidth=2;rounded=0;" parent="1" edge="1">
          <mxGeometry width="50" height="50" relative="1" as="geometry">
            <mxPoint x="760" y="322.5" as="sourcePoint" />
            <mxPoint x="760" y="497.5" as="targetPoint" />
          </mxGeometry>
        </mxCell>
        <mxCell id="5-lBoet5AGBmrvLkEw8s-43" value="" style="endArrow=none;dashed=1;html=1;dashPattern=1 3;strokeWidth=2;rounded=0;" parent="1" edge="1">
          <mxGeometry width="50" height="50" relative="1" as="geometry">
            <mxPoint x="470" y="320" as="sourcePoint" />
            <mxPoint x="470" y="500" as="targetPoint" />
          </mxGeometry>
        </mxCell>
        <mxCell id="5-lBoet5AGBmrvLkEw8s-44" value="" style="endArrow=none;dashed=1;html=1;dashPattern=1 3;strokeWidth=2;rounded=0;" parent="1" edge="1">
          <mxGeometry width="50" height="50" relative="1" as="geometry">
            <mxPoint x="760" y="500" as="sourcePoint" />
            <mxPoint x="470" y="500" as="targetPoint" />
          </mxGeometry>
        </mxCell>
        <mxCell id="5-lBoet5AGBmrvLkEw8s-45" value="" style="shape=cube;whiteSpace=wrap;html=1;boundedLbl=1;backgroundOutline=1;darkOpacity=0.05;darkOpacity2=0.1;direction=east;fillColor=#d5e8d4;strokeColor=#82b366;" parent="1" vertex="1">
          <mxGeometry x="480" y="330" width="270" height="160" as="geometry" />
        </mxCell>
        <mxCell id="5-lBoet5AGBmrvLkEw8s-46" value="&lt;div style=&quot;font-size: 14px&quot;&gt;&lt;font style=&quot;font-size: 14px&quot;&gt;Server&lt;/font&gt;&lt;/div&gt;&lt;div style=&quot;font-size: 14px&quot;&gt;&lt;font style=&quot;font-size: 14px&quot;&gt;(Backend)&lt;br&gt;&lt;/font&gt;&lt;/div&gt;" style="text;html=1;align=center;verticalAlign=middle;resizable=0;points=[];autosize=1;strokeColor=none;fillColor=none;rotation=270;" parent="1" vertex="1">
          <mxGeometry x="480" y="390" width="80" height="30" as="geometry" />
        </mxCell>
        <mxCell id="5-lBoet5AGBmrvLkEw8s-47" value="" style="rounded=0;whiteSpace=wrap;html=1;fontSize=14;direction=south;fillColor=#f8cecc;strokeColor=#b85450;" parent="1" vertex="1">
          <mxGeometry x="540" y="357.5" width="190" height="122.5" as="geometry" />
        </mxCell>
        <mxCell id="5-lBoet5AGBmrvLkEw8s-48" value="&lt;div&gt;Container&lt;/div&gt;&lt;div&gt;(Nginx)&lt;br&gt;&lt;/div&gt;" style="rounded=0;whiteSpace=wrap;html=1;fontSize=13;fillColor=#fff2cc;strokeColor=#d6b656;" parent="1" vertex="1">
          <mxGeometry x="602.5" y="360" width="65" height="40" as="geometry" />
        </mxCell>
        <mxCell id="5-lBoet5AGBmrvLkEw8s-49" value="&lt;div&gt;Container&lt;/div&gt;&lt;div&gt;(Backend Source Code)&lt;br&gt;&lt;/div&gt;" style="rounded=0;whiteSpace=wrap;html=1;fontSize=13;direction=south;fillColor=#fff2cc;strokeColor=#d6b656;" parent="1" vertex="1">
          <mxGeometry x="550" y="410" width="70" height="70" as="geometry" />
        </mxCell>
        <mxCell id="5-lBoet5AGBmrvLkEw8s-51" value="" style="endArrow=none;dashed=1;html=1;rounded=0;" parent="1" edge="1">
          <mxGeometry width="50" height="50" relative="1" as="geometry">
            <mxPoint x="634.5" y="570" as="sourcePoint" />
            <mxPoint x="634.5" y="500" as="targetPoint" />
          </mxGeometry>
        </mxCell>
        <mxCell id="5-lBoet5AGBmrvLkEw8s-52" value="" style="endArrow=none;dashed=1;html=1;dashPattern=1 3;strokeWidth=2;rounded=0;" parent="1" edge="1">
          <mxGeometry width="50" height="50" relative="1" as="geometry">
            <mxPoint x="770" y="570" as="sourcePoint" />
            <mxPoint x="480" y="570" as="targetPoint" />
          </mxGeometry>
        </mxCell>
        <mxCell id="5-lBoet5AGBmrvLkEw8s-54" value="" style="endArrow=none;dashed=1;html=1;dashPattern=1 3;strokeWidth=2;rounded=0;" parent="1" edge="1">
          <mxGeometry width="50" height="50" relative="1" as="geometry">
            <mxPoint x="770" y="570" as="sourcePoint" />
            <mxPoint x="770" y="745" as="targetPoint" />
          </mxGeometry>
        </mxCell>
        <mxCell id="5-lBoet5AGBmrvLkEw8s-55" value="" style="endArrow=none;dashed=1;html=1;dashPattern=1 3;strokeWidth=2;rounded=0;" parent="1" edge="1">
          <mxGeometry width="50" height="50" relative="1" as="geometry">
            <mxPoint x="760" y="740" as="sourcePoint" />
            <mxPoint x="480" y="740" as="targetPoint" />
          </mxGeometry>
        </mxCell>
        <mxCell id="5-lBoet5AGBmrvLkEw8s-56" value="" style="endArrow=none;dashed=1;html=1;dashPattern=1 3;strokeWidth=2;rounded=0;" parent="1" edge="1">
          <mxGeometry width="50" height="50" relative="1" as="geometry">
            <mxPoint x="480" y="570" as="sourcePoint" />
            <mxPoint x="480" y="745" as="targetPoint" />
          </mxGeometry>
        </mxCell>
        <mxCell id="5-lBoet5AGBmrvLkEw8s-57" value="&lt;div&gt;New Instance&lt;/div&gt;&lt;div&gt;based on load traffic handle by&lt;/div&gt;&lt;div&gt;Load balancer&lt;br&gt;&lt;/div&gt;" style="text;html=1;align=center;verticalAlign=middle;resizable=0;points=[];autosize=1;strokeColor=#36393d;fillColor=#cdeb8b;rounded=0;" parent="1" vertex="1">
          <mxGeometry x="560" y="615" width="180" height="50" as="geometry" />
        </mxCell>
        <mxCell id="5-lBoet5AGBmrvLkEw8s-59" value="&lt;div&gt;New Instance&lt;/div&gt;&lt;div&gt;based on load traffic handle by&lt;/div&gt;&lt;div&gt;Load balancer&lt;br&gt;&lt;/div&gt;" style="text;html=1;align=center;verticalAlign=middle;resizable=0;points=[];autosize=1;strokeColor=#36393d;fillColor=#cdeb8b;" parent="1" vertex="1">
          <mxGeometry x="140" y="615" width="180" height="50" as="geometry" />
        </mxCell>
        <mxCell id="5-lBoet5AGBmrvLkEw8s-60" value="" style="endArrow=classic;html=1;rounded=0;" parent="1" edge="1">
          <mxGeometry width="50" height="50" relative="1" as="geometry">
            <mxPoint x="370" y="410" as="sourcePoint" />
            <mxPoint x="470" y="410" as="targetPoint" />
          </mxGeometry>
        </mxCell>
        <mxCell id="5-lBoet5AGBmrvLkEw8s-63" value="&lt;div&gt;MONGO DATABASE&lt;br&gt;&lt;/div&gt;&lt;div&gt;&lt;br&gt;&lt;/div&gt;" style="shape=cube;whiteSpace=wrap;html=1;boundedLbl=1;backgroundOutline=1;darkOpacity=0.05;darkOpacity2=0.1;rounded=0;fillColor=#dae8fc;strokeColor=#6c8ebf;" parent="1" vertex="1">
          <mxGeometry x="850" y="590" width="210" height="110" as="geometry" />
        </mxCell>
        <mxCell id="5-lBoet5AGBmrvLkEw8s-73" value="" style="endArrow=classic;startArrow=classic;html=1;rounded=0;" parent="1" edge="1">
          <mxGeometry width="50" height="50" relative="1" as="geometry">
            <mxPoint x="760" y="395" as="sourcePoint" />
            <mxPoint x="970" y="395" as="targetPoint" />
            <Array as="points">
              <mxPoint x="870" y="395" />
            </Array>
          </mxGeometry>
        </mxCell>
        <mxCell id="5-lBoet5AGBmrvLkEw8s-76" value="" style="endArrow=classic;html=1;rounded=0;entryX=0.586;entryY=-0.018;entryDx=0;entryDy=0;entryPerimeter=0;" parent="1" target="5-lBoet5AGBmrvLkEw8s-63" edge="1">
          <mxGeometry width="50" height="50" relative="1" as="geometry">
            <mxPoint x="970" y="390" as="sourcePoint" />
            <mxPoint x="980" y="430" as="targetPoint" />
          </mxGeometry>
        </mxCell>
        <mxCell id="5-lBoet5AGBmrvLkEw8s-80" value="Web Browser" style="rounded=0;whiteSpace=wrap;html=1;fillColor=#e1d5e7;strokeColor=#9673a6;" parent="1" vertex="1">
          <mxGeometry x="429" y="10" width="120" height="40" as="geometry" />
        </mxCell>
        <mxCell id="5-lBoet5AGBmrvLkEw8s-81" style="edgeStyle=orthogonalEdgeStyle;rounded=0;orthogonalLoop=1;jettySize=auto;html=1;exitX=0.5;exitY=1;exitDx=0;exitDy=0;" parent="1" source="5-lBoet5AGBmrvLkEw8s-80" target="5-lBoet5AGBmrvLkEw8s-80" edge="1">
          <mxGeometry relative="1" as="geometry" />
        </mxCell>
        <mxCell id="5-lBoet5AGBmrvLkEw8s-82" value="" style="endArrow=classic;html=1;rounded=0;entryX=0.325;entryY=0;entryDx=0;entryDy=0;entryPerimeter=0;" parent="1" target="5-lBoet5AGBmrvLkEw8s-5" edge="1">
          <mxGeometry width="50" height="50" relative="1" as="geometry">
            <mxPoint x="483" y="50" as="sourcePoint" />
            <mxPoint x="390" y="10" as="targetPoint" />
          </mxGeometry>
        </mxCell>
        <mxCell id="5-lBoet5AGBmrvLkEw8s-83" value="Tcp/IP protocol" style="text;html=1;align=center;verticalAlign=middle;resizable=0;points=[];autosize=1;strokeColor=#B09500;fillColor=#e3c800;fontColor=#000000;" parent="1" vertex="1">
          <mxGeometry x="490" y="60" width="100" height="20" as="geometry" />
        </mxCell>
        <mxCell id="5-lBoet5AGBmrvLkEw8s-84" value="" style="endArrow=classic;html=1;rounded=0;exitX=0.275;exitY=1.05;exitDx=0;exitDy=0;exitPerimeter=0;" parent="1" source="5-lBoet5AGBmrvLkEw8s-5" edge="1">
          <mxGeometry width="50" height="50" relative="1" as="geometry">
            <mxPoint x="350" y="30" as="sourcePoint" />
            <mxPoint x="481" y="140" as="targetPoint" />
          </mxGeometry>
        </mxCell>
        <mxCell id="jvCYndB4-Au6V3VZ_O3Q-12" value="Execute Query data" style="text;html=1;align=center;verticalAlign=middle;resizable=0;points=[];autosize=1;strokeColor=none;fillColor=none;rotation=270;" parent="1" vertex="1">
          <mxGeometry x="895" y="460" width="120" height="20" as="geometry" />
        </mxCell>
      </root>
    </mxGraphModel>
  </diagram>
</mxfile>
